<?xml version="1.0" standalone="no"?>
<!DOCTYPE svg PUBLIC "-//W3C//DTD SVG 20010904//EN"
 "http://www.w3.org/TR/2001/REC-SVG-20010904/DTD/svg10.dtd">
<svg version="1.0" xmlns="http://www.w3.org/2000/svg"
 width="960.000000pt" height="960.000000pt" viewBox="0 0 960.000000 960.000000"
 preserveAspectRatio="xMidYMid meet">
<metadata>
Created by potrace 1.14, written by Peter Selinger 2001-2017
</metadata>
<g transform="translate(0.000000,960.000000) scale(0.100000,-0.100000)"
fill="#000000" stroke="none">
<path d="M4833 9315 c-14 -15 -57 -98 -54 -104 2 -2 -1 -7 -6 -10 -8 -6 -13
-15 -83 -146 -49 -92 -89 -166 -151 -280 -23 -44 -51 -96 -61 -115 -37 -70
-95 -177 -137 -255 -24 -44 -60 -109 -79 -145 -19 -36 -47 -87 -62 -115 -15
-27 -46 -86 -70 -130 -24 -44 -55 -103 -71 -131 -39 -71 -109 -203 -127 -239
-8 -16 -22 -38 -30 -47 -8 -10 -12 -18 -7 -18 4 0 2 -6 -4 -13 -6 -8 -26 -43
-44 -78 -19 -36 -47 -89 -64 -119 -16 -30 -47 -86 -68 -125 -21 -38 -45 -80
-53 -92 -8 -13 -11 -23 -7 -23 5 0 1 -8 -7 -17 -23 -28 -58 -93 -58 -108 0 -7
-4 -15 -8 -17 -4 -1 -23 -32 -41 -68 -19 -36 -39 -68 -45 -72 -6 -4 -7 -8 -2
-8 5 0 4 -6 -1 -12 -6 -7 -30 -49 -53 -93 -24 -44 -55 -102 -70 -130 -15 -27
-53 -99 -85 -160 -32 -60 -62 -111 -66 -113 -5 -2 -9 -10 -9 -17 0 -12 -45
-99 -81 -155 -5 -8 -16 -32 -25 -52 -9 -21 -21 -38 -27 -38 -6 0 -7 -3 -4 -7
4 -3 3 -11 -2 -17 -5 -6 -29 -50 -55 -98 -25 -47 -62 -115 -81 -150 -19 -35
-49 -92 -67 -128 -18 -36 -39 -71 -46 -78 -7 -8 -10 -17 -7 -22 3 -5 1 -10 -3
-12 -9 -3 -20 -22 -64 -108 -12 -25 -51 -97 -86 -160 -35 -63 -64 -119 -65
-125 -1 -5 -5 -12 -8 -15 -5 -4 -42 -71 -113 -205 -11 -22 -25 -43 -31 -47 -5
-4 -6 -8 -1 -8 5 0 4 -6 -1 -12 -6 -7 -27 -44 -48 -83 -20 -38 -46 -85 -57
-102 -11 -18 -16 -33 -11 -33 4 0 3 -4 -3 -8 -6 -4 -37 -56 -69 -117 -81 -153
-79 -149 -90 -157 -5 -4 -6 -8 -1 -8 5 0 4 -6 -2 -13 -6 -7 -32 -53 -58 -102
-26 -50 -60 -112 -75 -140 -15 -27 -39 -70 -52 -95 -47 -89 -121 -226 -156
-291 -20 -36 -47 -87 -61 -115 -14 -27 -27 -51 -30 -54 -3 -3 -16 -25 -29 -50
-22 -43 -63 -119 -149 -280 -22 -41 -48 -91 -58 -110 -11 -19 -23 -38 -29 -42
-5 -4 -6 -8 -2 -8 5 0 -1 -13 -13 -30 -12 -16 -18 -30 -13 -30 4 0 3 -4 -3 -8
-6 -4 -37 -56 -69 -117 -32 -60 -72 -135 -88 -165 -17 -30 -42 -77 -56 -105
-15 -27 -62 -113 -104 -191 -42 -77 -77 -146 -77 -152 0 -5 -3 -12 -7 -14 -5
-1 -24 -34 -44 -73 -66 -126 -74 -140 -81 -143 -5 -2 -8 -12 -8 -22 0 -10 -5
-22 -10 -25 -6 -3 -18 -23 -28 -43 -10 -20 -35 -67 -55 -105 -20 -37 -52 -95
-71 -130 -18 -34 -70 -131 -116 -215 -45 -84 -81 -154 -79 -156 4 -3 126 -69
234 -126 28 -15 79 -43 115 -62 36 -19 101 -55 145 -78 44 -24 100 -54 125
-68 192 -106 228 -122 233 -104 3 9 25 53 49 97 24 44 57 105 73 135 17 30 34
58 40 62 5 4 6 8 1 8 -5 0 -4 6 2 13 5 6 23 37 39 67 17 30 52 96 79 145 57
106 91 169 131 245 17 30 43 80 60 110 16 30 45 84 64 120 18 36 36 67 39 70
3 3 22 39 43 80 21 41 52 100 68 130 17 30 47 87 67 125 20 39 42 73 47 77 6
4 6 8 2 8 -5 0 0 12 11 28 10 15 47 81 82 147 35 66 71 134 80 150 9 17 35 64
57 105 143 265 171 318 185 345 8 17 24 46 35 65 31 55 76 137 128 235 57 107
107 201 145 270 31 56 65 120 170 315 40 74 88 164 108 200 19 36 55 103 79
150 24 46 48 89 52 95 4 5 32 55 61 110 125 237 154 290 162 293 4 2 8 12 8
22 0 9 7 23 15 30 9 7 13 15 11 18 -3 2 6 21 18 41 13 20 38 66 56 101 18 36
35 67 39 70 6 5 33 56 109 205 20 39 41 73 46 77 6 4 7 8 2 8 -5 0 -3 6 3 13
12 15 87 152 129 237 14 30 30 57 33 60 4 3 21 34 39 70 18 36 36 67 40 70 4
3 11 16 15 30 4 14 18 41 29 60 12 19 30 53 41 75 11 22 22 42 25 45 3 3 14
23 25 45 11 22 26 48 34 58 8 9 11 17 7 17 -4 0 1 12 12 28 11 15 38 63 61
107 23 44 55 103 70 130 15 28 44 84 66 125 21 41 46 86 56 100 9 14 17 27 17
30 0 14 26 60 34 60 4 0 7 3 6 8 -2 7 12 36 65 132 17 30 42 78 56 105 14 28
28 52 31 55 3 3 23 40 45 82 22 43 42 78 45 78 3 0 16 -21 30 -47 14 -27 43
-82 66 -123 22 -41 61 -113 86 -160 25 -47 54 -101 65 -120 11 -19 39 -73 64
-120 24 -47 46 -87 49 -90 3 -3 17 -27 31 -55 29 -57 108 -205 149 -280 15
-27 47 -86 71 -130 23 -44 57 -107 75 -140 18 -33 45 -85 61 -115 15 -30 30
-57 33 -60 3 -3 25 -43 49 -90 25 -47 53 -101 64 -120 22 -38 102 -189 139
-260 13 -25 25 -47 28 -50 3 -3 15 -25 28 -50 23 -45 76 -145 122 -230 13 -25
31 -53 40 -64 8 -10 14 -20 12 -22 -2 -3 24 -54 57 -115 34 -60 61 -113 61
-118 0 -5 9 -20 21 -35 11 -14 17 -26 12 -26 -4 0 -3 -4 2 -8 10 -7 15 -15 84
-144 127 -240 178 -333 230 -428 20 -36 47 -85 59 -110 12 -25 26 -52 32 -60
16 -25 270 -500 283 -528 6 -15 14 -29 17 -32 4 -3 32 -54 64 -115 33 -60 73
-137 92 -170 83 -152 127 -234 152 -285 15 -30 30 -57 35 -58 4 -2 7 -8 7 -13
0 -5 8 -21 17 -36 10 -14 18 -32 19 -39 1 -7 11 -26 22 -41 10 -15 43 -73 71
-128 29 -55 57 -106 63 -112 6 -7 7 -13 3 -13 -5 0 -1 -8 7 -17 8 -10 30 -47
49 -83 18 -36 41 -77 52 -92 10 -16 15 -28 11 -28 -3 0 -2 -6 4 -12 10 -13 28
-45 99 -178 43 -79 155 -287 218 -405 21 -38 50 -92 64 -120 14 -27 29 -52 34
-53 4 -2 5 -8 1 -13 -3 -5 0 -9 6 -9 6 0 8 -4 5 -10 -3 -5 -3 -10 2 -10 4 0
13 -10 19 -23 9 -20 40 -79 155 -292 23 -44 47 -90 54 -101 12 -24 -3 -31 230
96 44 23 139 74 210 112 72 38 137 73 145 78 8 5 51 28 95 51 44 23 82 46 83
50 2 5 8 9 14 9 21 0 76 32 74 43 -5 25 -30 67 -39 67 -6 0 -7 3 -4 7 4 3 3
11 -2 17 -4 6 -30 52 -56 101 -26 50 -60 113 -75 140 -15 28 -40 75 -56 105
-15 30 -30 57 -33 60 -4 3 -28 50 -56 104 -27 55 -65 124 -84 155 -18 31 -34
61 -35 67 -1 7 -7 18 -12 25 -6 8 -39 68 -74 134 -34 66 -66 125 -70 130 -4 6
-33 60 -65 120 -32 61 -67 126 -78 145 -11 19 -31 58 -45 85 -14 28 -34 62
-44 78 -11 15 -16 27 -12 27 3 0 2 6 -3 13 -11 13 -34 54 -108 192 -26 50 -59
110 -73 135 -26 48 -83 154 -140 260 -19 36 -47 88 -62 115 -62 113 -165 305
-212 395 -18 36 -36 67 -39 70 -3 3 -16 28 -29 55 -13 28 -26 52 -30 55 -3 3
-17 28 -31 55 -27 53 -93 176 -139 260 -15 28 -46 84 -68 125 -21 41 -51 95
-64 120 -14 25 -44 81 -67 125 -24 44 -47 84 -52 90 -5 5 -9 17 -9 26 0 10 -4
19 -8 21 -5 2 -34 52 -65 111 -32 59 -63 118 -71 130 -7 12 -37 67 -65 122
-29 54 -56 104 -61 111 -6 6 -7 14 -3 17 3 4 2 7 -4 7 -6 0 -16 12 -22 28 -12
31 -77 151 -93 170 -6 6 -7 12 -3 12 4 0 3 6 -3 13 -6 6 -27 44 -47 82 -34 64
-57 106 -135 250 -15 28 -44 82 -65 120 -21 39 -50 93 -65 120 -48 87 -112
208 -144 270 -17 33 -33 62 -36 65 -3 3 -12 19 -20 35 -8 17 -21 38 -29 48 -8
9 -11 17 -7 17 4 0 -1 12 -11 28 -10 15 -29 50 -43 77 -14 28 -27 52 -30 55
-3 3 -14 23 -25 45 -11 22 -36 69 -56 105 -20 36 -57 106 -84 155 -26 50 -60
113 -75 140 -44 80 -112 207 -134 250 -12 22 -23 42 -27 45 -3 3 -13 23 -23
45 -11 22 -38 74 -61 115 -23 41 -65 119 -94 174 -29 54 -62 114 -73 135 -11
20 -36 65 -55 101 -116 221 -166 313 -173 320 -3 3 -16 28 -30 55 -14 28 -68
129 -120 225 -52 97 -102 189 -110 205 -8 17 -19 33 -25 37 -5 4 -6 8 -1 8 5
0 4 6 -2 13 -10 12 -50 84 -101 183 -20 38 -30 48 -38 39z"/>
<path d="M4750 5585 c-47 -91 -123 -241 -170 -333 -46 -92 -89 -170 -95 -174
-5 -4 -7 -8 -3 -8 4 0 -9 -28 -29 -62 -19 -35 -36 -68 -37 -73 -1 -6 -14 -32
-30 -59 -15 -26 -29 -54 -30 -61 -1 -7 -7 -19 -12 -26 -10 -13 -45 -80 -168
-324 -23 -44 -45 -83 -51 -87 -5 -4 -6 -8 -1 -8 5 0 4 -6 -1 -12 -6 -7 -72
-134 -148 -283 -76 -148 -142 -276 -147 -282 -6 -7 -7 -13 -3 -13 4 0 2 -7 -5
-15 -7 -8 -35 -59 -62 -112 -49 -96 -185 -360 -358 -698 -48 -93 -127 -249
-176 -345 -49 -96 -91 -177 -94 -180 -5 -5 -43 -81 -45 -90 0 -3 -10 -23 -22
-45 -46 -89 -101 -193 -111 -211 -6 -10 -39 -75 -73 -144 -34 -69 -66 -127
-71 -128 -4 -2 -6 -8 -2 -13 3 -5 0 -9 -5 -9 -6 0 -10 -3 -9 -7 2 -8 -123
-264 -133 -273 -17 -15 -30 -53 -21 -62 12 -12 103 -14 121 -4 6 4 11 3 11 -3
0 -7 8 -7 25 -1 14 5 27 5 30 0 3 -5 18 -5 35 0 17 5 32 5 35 0 3 -5 16 -5 30
0 16 6 25 6 25 0 0 -6 10 -6 26 0 14 6 23 6 20 2 -5 -9 69 -6 84 3 6 3 10 2
10 -4 0 -7 8 -7 25 -1 13 5 27 6 29 1 3 -4 26 -5 51 -1 25 4 48 3 51 -1 2 -5
16 -4 29 1 16 6 25 6 25 0 0 -6 9 -6 25 0 16 6 25 6 25 0 0 -6 10 -6 26 0 14
6 23 7 21 2 -3 -4 8 -7 24 -7 16 0 29 3 29 7 0 4 10 4 23 0 22 -9 75 -7 84 2
3 3 16 1 29 -4 14 -6 26 -6 29 0 4 7 13 7 24 0 12 -6 22 -5 29 2 9 9 15 9 23
1 8 -8 20 -8 35 -3 15 6 24 6 24 0 0 -6 9 -6 25 0 14 5 25 6 25 2 0 -4 18 -7
40 -7 22 0 40 3 40 7 0 4 11 3 25 -2 16 -6 25 -6 25 0 0 6 9 6 23 2 22 -9 75
-7 84 2 3 3 16 1 29 -4 15 -6 26 -6 30 1 4 7 10 7 18 0 7 -6 15 -8 19 -5 9 9
68 11 73 2 3 -4 16 -3 29 2 16 6 25 6 25 0 0 -6 9 -6 25 0 16 6 25 6 25 0 0
-6 10 -6 26 0 14 6 23 7 21 2 -3 -4 8 -7 24 -7 16 0 29 3 29 7 0 4 10 4 23 -1
13 -5 30 -5 39 0 10 6 19 6 23 0 4 -7 15 -7 30 -1 16 6 25 6 25 0 0 -6 10 -6
26 0 14 6 23 6 20 2 -5 -9 69 -6 84 3 6 3 10 2 10 -4 0 -7 8 -7 25 -1 14 5 27
5 30 0 3 -5 18 -5 35 0 17 5 32 5 35 0 3 -5 16 -5 30 0 16 6 25 6 25 0 0 -6
10 -6 26 0 14 6 23 6 20 2 -5 -9 69 -6 84 3 6 3 10 2 10 -4 0 -7 8 -7 25 -1
14 5 27 5 30 0 3 -5 18 -5 35 0 17 5 32 5 35 0 3 -5 16 -5 30 0 16 6 25 6 25
0 0 -6 10 -6 26 0 14 6 23 6 20 2 -5 -9 69 -6 84 3 6 3 10 2 10 -4 0 -7 8 -7
25 -1 14 5 27 5 30 0 3 -5 18 -5 35 0 17 5 32 5 35 0 3 -5 16 -5 30 0 16 6 25
6 25 0 0 -6 10 -6 26 0 14 6 23 6 20 2 -5 -9 69 -6 84 3 6 3 10 2 10 -4 0 -7
8 -7 25 -1 13 5 27 6 29 1 3 -4 26 -5 51 -1 25 4 48 3 51 -1 2 -5 16 -4 29 1
16 6 25 6 25 0 0 -6 9 -6 25 0 16 6 25 6 25 0 0 -6 10 -6 26 0 14 6 23 7 21 2
-3 -4 8 -7 24 -7 16 0 29 3 29 7 0 4 10 4 23 0 22 -9 75 -7 84 2 3 3 16 1 29
-4 14 -6 26 -6 29 0 4 7 13 7 24 0 12 -6 22 -5 29 2 9 9 15 9 23 1 8 -8 20 -8
35 -3 15 6 24 6 24 0 0 -6 9 -6 25 0 14 5 25 6 25 2 0 -4 18 -7 40 -7 22 0 40
3 40 7 0 4 11 3 25 -2 16 -6 25 -6 25 0 0 6 9 6 23 2 22 -9 75 -7 84 2 3 3 16
1 29 -4 15 -6 26 -6 30 1 4 7 10 7 18 0 7 -6 15 -8 19 -5 9 9 68 11 73 2 3 -4
16 -3 29 2 16 6 25 6 25 0 0 -6 9 -6 25 0 14 5 25 6 25 2 0 -4 11 -7 25 -7 14
0 25 3 25 7 0 4 10 4 23 -1 13 -5 30 -5 39 0 10 5 19 5 22 0 3 -4 17 -6 30 -4
l25 5 -25 39 c-13 21 -22 39 -19 39 2 0 -5 17 -16 37 -12 21 -67 126 -121 233
-55 107 -135 263 -178 345 -43 83 -135 263 -205 400 -70 138 -162 318 -205
400 -43 83 -126 245 -185 360 -59 116 -138 269 -175 340 -37 72 -78 150 -91
175 -12 25 -24 51 -25 58 -1 7 -8 19 -14 27 -6 8 -51 92 -99 187 -109 214
-263 514 -368 718 -44 85 -135 263 -203 395 -67 132 -131 255 -142 273 -11 17
-16 32 -12 32 4 0 0 8 -8 18 -8 9 -39 65 -69 124 -30 60 -56 108 -59 108 -3 0
-44 -74 -90 -165z m156 -2055 c31 -63 61 -117 66 -118 4 -2 5 -8 2 -14 -4 -6
-2 -13 3 -17 5 -3 33 -53 62 -110 49 -97 124 -244 347 -678 51 -100 89 -185
84 -188 -10 -6 -55 -7 -112 -3 -21 2 -38 1 -38 -2 0 -7 -69 -4 -76 3 -3 3 -17
2 -30 -3 -14 -6 -26 -6 -29 1 -4 5 -10 7 -15 4 -9 -5 -78 -7 -132 -3 -21 2
-38 1 -38 -2 0 -7 -69 -4 -76 3 -3 3 -16 2 -29 -3 -13 -5 -26 -6 -29 -3 -8 8
-102 7 -116 -2 -5 -3 -10 -1 -10 5 0 6 -4 8 -10 5 -13 -8 -138 -10 -146 -2 -3
3 -17 2 -30 -3 -13 -5 -24 -6 -24 -1 0 5 -15 5 -34 1 -19 -4 -40 -4 -47 1 -7
4 -20 4 -30 -1 -9 -5 -19 -7 -22 -4 -5 6 -97 8 -122 4 -14 -3 -69 1 -73 5 -2
2 2 14 9 27 7 12 12 26 11 31 -1 4 2 7 7 7 4 0 16 21 26 48 10 26 21 49 25 52
6 5 50 91 242 470 45 91 85 167 88 170 3 3 37 68 75 145 39 76 85 166 103 198
17 32 32 65 32 72 0 10 20 27 26 21 1 0 28 -53 60 -116z"/>
</g>
</svg>
