<svg xmlns="http://www.w3.org/2000/svg" xmlns:xlink="http://www.w3.org/1999/xlink"><defs>
<clipPath id="clip0_3_12">
<rect width="15" height="15" fill="white" transform="translate(0.75 0.5)"/>
</clipPath>
<clipPath id="clip1_3_12">
<rect width="13.3333" height="13.3333" fill="white" transform="translate(1.75 1)"/>
</clipPath>
</defs><symbol id="icon-arrow-down-bold" viewBox="0 0 11 11">
<path fill-rule="evenodd" clip-rule="evenodd" d="M5.45754 8.33726L1 3.87972L2.35084 2.3354L5.5028 5.48736L8.65476 2.3354L10.07 3.7955L5.61246 8.25304L5.57711 8.2177L5.45754 8.33726Z" fill="#171E29"/>
</symbol><symbol id="icon-button-plus" viewBox="0 0 32 32">
<rect width="32" height="32" fill="#55B8FF"/>
<rect x="9.64568" y="14.9204" width="13.1323" height="2.59572" fill="white"/>
<rect x="15.1015" y="22.9392" width="13.1124" height="2.59572" transform="rotate(-90 15.1015 22.9392)" fill="white"/>
</symbol><symbol id="icon-close-bold" viewBox="0 0 8 9">
<path fill-rule="evenodd" clip-rule="evenodd" d="M2.31229 4.01006L0 1.69776L1.69776 0L4.01006 2.31229L6.22525 0.0970967L7.92302 1.79486L5.70782 4.01006L7.9229 6.22514L6.22514 7.9229L4.01006 5.70782L1.69788 8.02L0.000116683 6.32224L2.31229 4.01006Z" fill="#89919A"/>
</symbol><symbol id="icon-close" viewBox="0 0 20 20"><path d="M.293 18.291a1 1 0 101.414 1.414L10 11.413l8.292 8.292a1 1 0 101.414-1.414l-8.292-8.292 8.292-8.292A1 1 0 1018.291.293L9.999 8.585 1.707.293A1 1 0 10.293 1.707L8.585 10 .293 18.291z"/></symbol><symbol id="icon-mail" viewBox="0 0 16 16">
<g clip-path="url(#clip0_3_12)">
<g clip-path="url(#clip1_3_12)">
<path d="M8.41611 7.66666L15.0833 4.27144V2.78829C15.0833 2.61893 15.0833 2.48148 15.0833 2.48148H1.75C1.75 2.48148 1.75001 2.61893 1.75001 2.78829V4.29414L8.41611 7.66666Z" fill="currentColor"/>
<path d="M8.53278 8.80425C8.495 8.82326 8.45555 8.83316 8.41667 8.83316C8.37833 8.83316 8.33889 8.82326 8.30111 8.80533L1.75 5.4661V12.8519C1.75 12.8519 1.87444 12.8519 2.02778 12.8519H14.8056C14.9583 12.8519 15.0833 12.8519 15.0833 12.8519V5.44446L8.53278 8.80425Z" fill="currentColor"/>
</g>
</g>

</symbol><symbol id="icon-user-1" viewBox="0 0 13 14">
<path d="M6.87474 7.01782C3.64652 7.01782 1.02008 10.0195 1.02008 13.7089C1.02008 13.8694 1.13413 13.9998 1.27464 13.9998H12.4749C12.6154 13.9998 12.7294 13.8694 12.7294 13.7089C12.7294 10.0195 10.103 7.01782 6.87474 7.01782Z" fill="currentColor"/>
<path d="M6.87489 6.40011C8.42132 6.40011 9.67494 4.9674 9.67494 3.20006C9.67494 1.43271 8.42132 0 6.87489 0C5.32847 0 4.07484 1.43271 4.07484 3.20006C4.07484 4.9674 5.32847 6.40011 6.87489 6.40011Z" fill="currentColor"/>
</symbol></svg>