<svg width="111" height="24" viewBox="0 0 111 24" fill="none" xmlns="http://www.w3.org/2000/svg">
<path d="M18.1857 17L22.4952 6.275H24.4517L28.7547 17H26.4862L25.5762 14.556H21.3642L20.4542 17H18.1857ZM22.0857 12.71H24.8612L23.4702 9.1155L22.0857 12.71ZM32.3826 17L27.8846 6.275H30.2636L33.2081 13.8345L36.1591 6.275H38.5316L34.0336 17H32.3826ZM41.6118 17V8.134H38.8948V6.275H46.4348V8.134H43.7113V17H41.6118ZM52.349 17.208C51.5993 17.208 50.8973 17.065 50.243 16.779C49.5886 16.493 49.0145 16.0965 48.5205 15.5895C48.0265 15.0782 47.6386 14.4867 47.357 13.815C47.0796 13.139 46.941 12.4153 46.941 11.644C46.941 10.8727 47.0796 10.1512 47.357 9.4795C47.6386 8.8035 48.0265 8.212 48.5205 7.705C49.0145 7.19367 49.5886 6.795 50.243 6.509C50.8973 6.223 51.5993 6.08 52.349 6.08C53.0986 6.08 53.8006 6.223 54.455 6.509C55.1093 6.795 55.6835 7.19367 56.1775 7.705C56.6715 8.212 57.0571 8.8035 57.3345 9.4795C57.6161 10.1512 57.757 10.8727 57.757 11.644C57.757 12.4153 57.6161 13.139 57.3345 13.815C57.0571 14.4867 56.6715 15.0782 56.1775 15.5895C55.6835 16.0965 55.1093 16.493 54.455 16.779C53.8006 17.065 53.0986 17.208 52.349 17.208ZM52.3425 15.18C52.8018 15.18 53.2221 15.0933 53.6035 14.92C53.9848 14.7467 54.3163 14.5018 54.598 14.1855C54.8796 13.8692 55.0985 13.4965 55.2545 13.0675C55.4105 12.6342 55.4885 12.1597 55.4885 11.644C55.4885 11.1283 55.4105 10.656 55.2545 10.227C55.0985 9.79367 54.8796 9.41883 54.598 9.1025C54.3163 8.78617 53.9848 8.54133 53.6035 8.368C53.2221 8.19467 52.8018 8.108 52.3425 8.108C51.8918 8.108 51.4736 8.19467 51.088 8.368C50.7066 8.54133 50.3751 8.78617 50.0935 9.1025C49.8118 9.41883 49.593 9.79367 49.437 10.227C49.2853 10.656 49.2095 11.1283 49.2095 11.644C49.2095 12.1597 49.2853 12.6342 49.437 13.0675C49.593 13.4965 49.8118 13.8692 50.0935 14.1855C50.3751 14.5018 50.7066 14.7467 51.088 14.92C51.4736 15.0933 51.8918 15.18 52.3425 15.18ZM64.3808 17.208C63.6441 17.208 62.9573 17.0672 62.3203 16.7855C61.6833 16.5038 61.1264 16.1117 60.6498 15.609C60.1731 15.102 59.8004 14.5105 59.5318 13.8345C59.2631 13.1585 59.1288 12.4262 59.1288 11.6375C59.1288 10.8835 59.2544 10.1728 59.5058 9.5055C59.7571 8.83383 60.1189 8.24233 60.5913 7.731C61.0636 7.21533 61.6334 6.81233 62.3008 6.522C62.9681 6.22733 63.7156 6.08 64.5433 6.08C65.0113 6.08 65.4814 6.132 65.9538 6.236C66.4304 6.34 66.8876 6.49383 67.3253 6.6975C67.7629 6.89683 68.1573 7.14167 68.5083 7.432L67.5203 9.0635C67.1433 8.7125 66.6861 8.44167 66.1488 8.251C65.6158 8.056 65.0893 7.9585 64.5693 7.9585C64.0579 7.9585 63.6051 8.0495 63.2108 8.2315C62.8208 8.40917 62.4914 8.6605 62.2228 8.9855C61.9541 9.3105 61.7504 9.69183 61.6118 10.1295C61.4731 10.5628 61.4038 11.0352 61.4038 11.5465C61.4038 12.1055 61.4818 12.6125 61.6378 13.0675C61.7938 13.5225 62.0104 13.9147 62.2878 14.244C62.5694 14.5733 62.8966 14.8268 63.2693 15.0045C63.6463 15.1822 64.0514 15.271 64.4848 15.271C64.8314 15.271 65.1651 15.2147 65.4858 15.102C65.8108 14.985 66.0989 14.8225 66.3503 14.6145C66.6016 14.4065 66.8009 14.1617 66.9483 13.88C67.0956 13.5983 67.1693 13.2907 67.1693 12.957V12.7945H64.3548V11.163H69.3143V12.788C69.3143 13.4423 69.1778 14.0403 68.9048 14.582C68.6361 15.1193 68.2678 15.5852 67.7998 15.9795C67.3318 16.3695 66.8031 16.6728 66.2138 16.8895C65.6244 17.1018 65.0134 17.208 64.3808 17.208ZM71.4358 17V6.275H75.0888C75.8211 6.275 76.456 6.405 76.9933 6.665C77.535 6.92067 77.9531 7.29117 78.2478 7.7765C78.5468 8.2575 78.6963 8.83817 78.6963 9.5185C78.6963 10.0558 78.601 10.5412 78.4103 10.9745C78.2196 11.4035 77.9466 11.7653 77.5913 12.06C77.236 12.3547 76.8048 12.5735 76.2978 12.7165L79.8078 17H77.1363L74.0423 12.957H73.5418V17H71.4358ZM73.5418 11.202H74.4388C74.8765 11.202 75.247 11.1392 75.5503 11.0135C75.8536 10.8878 76.0855 10.7037 76.2458 10.461C76.4105 10.214 76.4928 9.91933 76.4928 9.577C76.4928 9.057 76.313 8.65833 75.9533 8.381C75.598 8.09933 75.0931 7.9585 74.4388 7.9585H73.5418V11.202ZM79.9103 17L84.2198 6.275H86.1763L90.4793 17H88.2108L87.3008 14.556H83.0888L82.1788 17H79.9103ZM83.8103 12.71H86.5858L85.1948 9.1155L83.8103 12.71ZM92.0657 17V6.275H95.7187C96.4164 6.275 97.036 6.39633 97.5777 6.639C98.1194 6.88167 98.5462 7.2435 98.8582 7.7245C99.1702 8.20117 99.3262 8.797 99.3262 9.512C99.3262 10.2227 99.1702 10.8293 98.8582 11.332C98.5462 11.8347 98.1194 12.2203 97.5777 12.489C97.036 12.7533 96.4164 12.8855 95.7187 12.8855H94.1717V17H92.0657ZM94.1717 11.202H95.0687C95.437 11.202 95.775 11.1478 96.0827 11.0395C96.3947 10.9312 96.646 10.7578 96.8367 10.5195C97.0274 10.2812 97.1227 9.967 97.1227 9.577C97.1227 9.18267 97.0274 8.8685 96.8367 8.6345C96.646 8.39617 96.3947 8.225 96.0827 8.121C95.775 8.01267 95.437 7.9585 95.0687 7.9585H94.1717V11.202ZM101.27 17V6.275H103.376V10.7015H107.386V6.275H109.486V17H107.386V12.5475H103.376V17H101.27Z" fill="#171E29"/>
<path d="M13.1244 17.25L7.06218 6L1 17.25" stroke="#55B8FF" stroke-width="1.5"/>
<path d="M4.82598 16L7.06218 11.6426L9.29838 16H4.82598Z" stroke="#55B8FF" stroke-width="1.5"/>
</svg>
